<svg width="294.449341" height="59.000000" viewBox="0 0 294.449 59" fill="none" xmlns="http://www.w3.org/2000/svg" xmlns:xlink="http://www.w3.org/1999/xlink">
	<desc>
			Created with Pixso.
	</desc>
	<defs/>
	<path id="Vector" d="M41.8181 48.8306L2.33862 21.5977C-1.66217 18.8381 -0.302124 13.0923 4.68671 11.741L46.6463 0.352783C47.5351 0.0319824 48.4876 -0.0720215 49.4247 0.0490723C50.3619 0.170166 51.2566 0.513184 52.0347 1.04932C52.8127 1.58545 53.4517 2.29956 53.8985 3.13208C54.3453 3.96484 54.5871 4.89185 54.6038 5.83667L52.1171 44.4558C51.8222 49.0396 45.8188 51.5901 41.8181 48.8306Z" fill="#E9327C" fill-opacity="1.000000" fill-rule="nonzero"/>
	<path id="Vector" d="M29.2963 55.553L6.03772 10.0681C5.5061 9.02734 5.27216 7.86035 5.36169 6.69507C5.45123 5.53003 5.86078 4.41235 6.54523 3.46533C7.22968 2.51807 8.16235 1.77856 9.24048 1.32788C10.3186 0.877197 11.5002 0.73291 12.6551 0.911133L55.759 7.56372C56.7514 7.7168 57.6932 8.10327 58.5071 8.69141C59.321 9.27954 59.9836 10.0525 60.4406 10.9468C60.8976 11.8408 61.1357 12.8306 61.1356 13.8347C61.1354 14.8389 60.897 15.8286 60.4398 16.7227L40.5834 55.5552C40.0502 56.5928 39.2413 57.4634 38.2455 58.071C37.2498 58.6787 36.1057 59 34.9391 58.9998C33.7726 58.9995 32.6287 58.6777 31.6332 58.0696C30.6377 57.4617 29.8291 56.5908 29.2963 55.553Z" fill="#1DACE3" fill-opacity="1.000000" fill-rule="nonzero"/>
	<path id="Vector" d="M54.4982 7.36841L33.0112 4.052L6.62988 11.2151L17.1599 31.8152L41.8181 48.8306C42.3621 49.2017 42.9605 49.4861 43.5918 49.6733L52.9578 31.3574L54.4982 7.36841Z" fill="#3A68B8" fill-opacity="1.000000" fill-rule="nonzero"/>
	<path id="Vector" d="M163.335 12.6848C163.335 11.8862 163.572 11.1055 164.016 10.4414C164.459 9.77734 165.09 9.25977 165.828 8.9541C166.566 8.64844 167.378 8.5686 168.161 8.72437C168.945 8.88013 169.664 9.26465 170.229 9.82959C170.794 10.3943 171.178 11.1138 171.334 11.897C171.49 12.6804 171.41 13.4924 171.104 14.2302C170.799 14.968 170.281 15.5989 169.617 16.0425C168.953 16.4863 168.172 16.7231 167.373 16.7231C166.306 16.7122 165.285 16.2832 164.53 15.5283C163.775 14.7734 163.346 13.7524 163.335 12.6848ZM164.009 18.697L170.74 18.697L170.74 41.1304L164.009 41.1304L164.009 18.697Z" fill="#FFFFFF" fill-opacity="1.000000" fill-rule="nonzero"/>
	<path id="Vector" d="M199.811 29.9141C199.889 31.3967 199.673 32.8804 199.176 34.2795C198.679 35.6787 197.91 36.9658 196.913 38.0667C195.917 39.1675 194.713 40.0605 193.37 40.6946C192.027 41.3284 190.572 41.6904 189.089 41.76C187.841 41.8279 186.594 41.6177 185.438 41.144C184.282 40.6707 183.245 39.9458 182.404 39.0225L182.404 50.105L175.674 50.105L175.674 18.6973L182.404 18.6973L182.404 20.8057C183.245 19.8826 184.282 19.1582 185.438 18.6851C186.595 18.2122 187.842 18.002 189.089 18.0701C190.572 18.1394 192.027 18.5015 193.37 19.135C194.713 19.7686 195.917 20.6614 196.913 21.7622C197.91 22.8628 198.679 24.1499 199.176 25.5488C199.673 26.9478 199.889 28.4314 199.811 29.9141ZM193.081 29.9141C193.055 28.8638 192.719 27.8445 192.116 26.9839C191.513 26.1235 190.67 25.46 189.692 25.0762C188.714 24.6924 187.645 24.6057 186.617 24.8269C185.59 25.0481 184.651 25.5674 183.918 26.3196C183.184 27.0718 182.689 28.0237 182.494 29.0559C182.299 30.0884 182.412 31.1553 182.82 32.1235C183.229 33.0916 183.913 33.9177 184.789 34.4985C185.664 35.0796 186.692 35.3894 187.742 35.3892C188.464 35.4216 189.184 35.3013 189.856 35.0356C190.527 34.7703 191.135 34.3657 191.639 33.8486C192.143 33.3315 192.532 32.7136 192.781 32.0354C193.029 31.3574 193.132 30.6345 193.081 29.9141Z" fill="#FFFFFF" fill-opacity="1.000000" fill-rule="nonzero"/>
	<path id="Vector" d="M220.583 34.3965C220.583 39.5571 216.096 41.7556 211.25 41.7556C209.292 41.9326 207.327 41.5183 205.607 40.5662C203.888 39.614 202.493 38.1677 201.604 36.4146L207.436 33.0959C207.673 33.9065 208.181 34.6108 208.876 35.0916C209.57 35.5723 210.408 35.8 211.25 35.7368C212.865 35.7368 213.671 35.2417 213.671 34.3459C213.671 31.877 202.634 33.1797 202.634 25.4158C202.634 20.5259 206.761 18.0591 211.437 18.0591C213.191 18.0039 214.928 18.4202 216.466 19.2644C218.005 20.1084 219.289 21.3496 220.185 22.8586L214.443 25.9548C214.192 25.366 213.773 24.8643 213.238 24.512C212.704 24.1597 212.077 23.9727 211.437 23.9744C210.271 23.9744 209.553 24.4146 209.553 25.231C209.547 27.8057 220.583 26.1001 220.583 34.3965Z" fill="#FFFFFF" fill-opacity="1.000000" fill-rule="nonzero"/>
	<path id="Vector" d="M245.179 18.6968L245.179 41.1301L238.45 41.1301L238.45 39.0176C237.672 39.948 236.685 40.6814 235.57 41.1572C234.455 41.6331 233.242 41.8379 232.033 41.7551C227.501 41.7551 223.644 38.5247 223.644 32.4661L223.644 18.6968L230.373 18.6968L230.373 31.4846C230.317 32.0193 230.377 32.5601 230.551 33.0688C230.724 33.5776 231.007 34.0427 231.378 34.4312C231.75 34.8198 232.202 35.1228 232.703 35.3188C233.203 35.5149 233.74 35.5996 234.277 35.5669C236.744 35.5669 238.458 34.1321 238.458 30.9456L238.458 18.6968L245.179 18.6968Z" fill="#FFFFFF" fill-opacity="1.000000" fill-rule="nonzero"/>
	<path id="Vector" d="M283.752 27.3538L283.752 41.1299L277.022 41.1299L277.022 27.9392C277.022 25.6968 275.944 24.2598 273.792 24.2598C271.547 24.2598 270.293 25.8308 270.293 28.4783L270.293 41.1299L263.561 41.1299L263.561 27.9392C263.561 25.6968 262.485 24.2598 260.331 24.2598C258.088 24.2598 256.832 25.8308 256.832 28.4783L256.832 41.1299L250.102 41.1299L250.102 18.6965L256.842 18.6965L256.842 20.752C257.54 19.8367 258.456 19.1108 259.506 18.6406C260.556 18.1704 261.707 17.9709 262.855 18.0605C264.007 18.0042 265.154 18.2471 266.184 18.7659C267.214 19.2847 268.092 20.0613 268.733 21.0203C269.478 20.0168 270.467 19.219 271.605 18.7014C272.743 18.1838 273.993 17.9634 275.24 18.0605C280.389 18.0693 283.752 21.7466 283.752 27.3538Z" fill="#FFFFFF" fill-opacity="1.000000" fill-rule="nonzero"/>
	<path id="Vector" d="M294.449 13.5627C294.449 16.3218 292.213 18.5583 289.454 18.5583C286.695 18.5583 284.458 16.3218 284.458 13.5627C284.458 10.804 286.695 8.56738 289.454 8.56738C292.213 8.56738 294.449 10.804 294.449 13.5627Z" fill="#FFFFFF" fill-opacity="1.000000" fill-rule="evenodd"/>
	<path id="Vector" d="M71.4541 8.37817L78.1859 8.37817L78.1859 41.1304L71.4541 41.1304L71.4541 8.37817ZM81.9974 29.9136C81.99 27.5618 82.6806 25.2605 83.9819 23.3013C85.2831 21.3423 87.1365 19.8132 89.3073 18.9082C91.478 18.0029 93.8685 17.7622 96.1761 18.2166C98.4838 18.6709 100.605 19.7998 102.27 21.4602C103.936 23.1206 105.072 25.2378 105.533 27.5442C105.995 29.8503 105.762 32.2415 104.863 34.415C103.965 36.5886 102.442 38.4468 100.487 39.7544C98.5317 41.0618 96.2327 41.7598 93.8808 41.7598C92.3188 41.7764 90.769 41.4817 89.3222 40.8928C87.8753 40.3037 86.5603 39.4324 85.454 38.3296C84.3477 37.2268 83.4722 35.9146 82.8787 34.4695C82.2852 33.0244 81.9856 31.4758 81.9974 29.9136ZM99.0479 29.9136C99.0215 28.8992 98.6966 27.9148 98.1137 27.084C97.5309 26.2534 96.716 25.6128 95.771 25.2427C94.826 24.8726 93.7929 24.7893 92.8009 25.0034C91.8088 25.2175 90.9019 25.7192 90.1936 26.446C89.4852 27.1729 89.0069 28.0923 88.8184 29.0894C88.6299 30.0867 88.7397 31.1172 89.1339 32.0525C89.5281 32.9875 90.1893 33.7859 91.0349 34.3472C91.8803 34.9084 92.8726 35.208 93.8874 35.2083C94.5823 35.2283 95.2739 35.1038 95.9183 34.843C96.5628 34.5823 97.1463 34.1909 97.632 33.6934C98.1176 33.196 98.495 32.6033 98.7402 31.9526C98.9854 31.3022 99.0932 30.6079 99.0567 29.9136L99.0479 29.9136ZM132.605 18.6904L132.605 40.0037C132.605 47.5408 126.728 50.7251 120.762 50.7251C118.662 50.8835 116.558 50.4609 114.683 49.5032C112.807 48.5457 111.231 47.0901 110.128 45.2961L115.87 41.9753C116.333 42.9116 117.071 43.6841 117.986 44.1895C118.9 44.6948 119.947 44.9089 120.986 44.8032C121.649 44.8938 122.325 44.8342 122.962 44.6289C123.599 44.4238 124.182 44.0781 124.668 43.6174C125.154 43.1567 125.53 42.5928 125.769 41.9673C126.008 41.3418 126.103 40.6709 126.048 40.0037L126.048 37.9395C125.259 38.9033 124.256 39.6692 123.118 40.1755C121.981 40.6819 120.74 40.9148 119.496 40.8552C116.535 40.7632 113.726 39.5222 111.664 37.395C109.602 35.2681 108.449 32.4216 108.449 29.4592C108.449 26.4966 109.602 23.6504 111.664 21.5232C113.726 19.3962 116.535 18.1553 119.496 18.0632C120.74 18.0037 121.981 18.2363 123.118 18.7427C124.256 19.249 125.259 20.0151 126.048 20.979L126.048 18.6904L132.605 18.6904ZM126.056 29.458C126.101 28.3745 125.82 27.3025 125.25 26.3799C124.68 25.4573 123.848 24.7261 122.859 24.2805C121.87 23.8347 120.771 23.6951 119.702 23.8792C118.634 24.0632 117.645 24.563 116.862 25.3137C116.08 26.0645 115.54 27.0322 115.311 28.0923C115.083 29.1526 115.177 30.2566 115.582 31.2629C115.986 32.269 116.682 33.1313 117.581 33.7388C118.479 34.3462 119.539 34.6709 120.623 34.6714C121.33 34.7212 122.04 34.6223 122.706 34.3813C123.373 34.1401 123.982 33.7625 124.493 33.272C125.005 32.7815 125.409 32.1895 125.678 31.5337C125.947 30.8779 126.076 30.1733 126.056 29.4646L126.056 29.458ZM136.417 29.8982C136.41 27.5464 137.1 25.2451 138.401 23.2859C139.703 21.3269 141.556 19.7979 143.727 18.8928C145.898 17.9875 148.288 17.7468 150.596 18.2012C152.903 18.6555 155.024 19.7842 156.69 21.4448C158.356 23.1052 159.491 25.2224 159.953 27.5286C160.414 29.835 160.181 32.2261 159.283 34.3997C158.385 36.5732 156.861 38.4314 154.906 39.739C152.951 41.0464 150.652 41.7441 148.3 41.7444C146.74 41.761 145.191 41.4668 143.745 40.8787C142.3 40.2908 140.985 39.4209 139.879 38.3196C138.773 37.2183 137.897 35.908 137.303 34.4648C136.708 33.0215 136.407 31.4744 136.417 29.9136L136.417 29.8982ZM153.468 29.8982C153.442 28.8831 153.117 27.8982 152.534 27.0667C151.951 26.2351 151.136 25.594 150.19 25.2234C149.245 24.853 148.211 24.7695 147.218 24.9836C146.226 25.1975 145.318 25.6997 144.609 26.4268C143.901 27.1541 143.422 28.0742 143.234 29.072C143.045 30.0698 143.155 31.1011 143.55 32.0369C143.944 32.9724 144.606 33.771 145.452 34.3323C146.299 34.8938 147.292 35.1931 148.307 35.1929C149 35.2114 149.689 35.0864 150.331 34.8262C150.974 34.5657 151.555 34.1755 152.04 33.6799C152.524 33.1843 152.901 32.594 153.147 31.9458C153.393 31.2979 153.502 30.606 153.468 29.9136L153.468 29.8982Z" fill="#FFFFFF" fill-opacity="1.000000" fill-rule="nonzero"/>
</svg>
