<svg width="44.040344" height="57.000244" viewBox="0 0 44.0403 57.0002" fill="none" xmlns="http://www.w3.org/2000/svg" xmlns:xlink="http://www.w3.org/1999/xlink">
	<desc>
			Created with Pixso.
	</desc>
	<defs/>
	<path d="M22.0202 5.74219C21.7296 5.74219 21.4492 5.69788 21.1852 5.61572L21.1852 9.5957L22.8552 9.5957L22.8552 5.61572C22.5912 5.698 22.3108 5.74219 22.0202 5.74219Z" fill="#135693" fill-opacity="1.000000" fill-rule="nonzero"/>
	<path d="M24.947 2.92676C24.947 4.54321 23.6366 5.85364 22.0201 5.85364C20.4037 5.85364 19.0933 4.54321 19.0933 2.92676C19.0933 1.31042 20.4037 0 22.0201 0C23.6366 0 24.947 1.31042 24.947 2.92676Z" fill="#6BC1DD" fill-opacity="1.000000" fill-rule="evenodd"/>
	<g opacity="0.150000">
		<g opacity="0.150000">
			<path d="M21.5569 2.92676C21.5569 1.75061 22.251 0.736938 23.252 0.271729C22.8773 0.0977783 22.4603 0 22.0201 0C20.4037 0 19.0933 1.31042 19.0933 2.92676C19.0933 4.54321 20.4037 5.85352 22.0201 5.85352C22.4603 5.85352 22.8773 5.75574 23.252 5.58179C22.251 5.1167 21.5569 4.10303 21.5569 2.92676Z" fill="#440075" fill-opacity="1.000000" fill-rule="nonzero"/>
		</g>
	</g>
	<path d="M40.676 14.1637L38.9501 14.1637L38.9501 30.0856L40.676 30.0856C41.6222 30.0856 42.3964 29.3115 42.3964 28.3654L42.3964 15.8839C42.3964 14.9379 41.6222 14.1637 40.676 14.1637Z" fill="#9EA7AF" fill-opacity="1.000000" fill-rule="nonzero"/>
	<path d="M5.09045 14.1642L3.25064 14.1642C2.30447 14.1642 1.5304 14.9384 1.5304 15.8844L1.5304 28.3657C1.5304 29.3119 2.30447 30.0859 3.25064 30.0859L5.09033 30.0859L5.09045 14.1642Z" fill="#9EA7AF" fill-opacity="1.000000" fill-rule="nonzero"/>
	<path d="M6.26349 50.9165L3.89932 50.9165C3.09219 50.9165 2.34241 50.6713 1.72031 50.2512L1.72031 55.8533C1.72031 56.484 2.23642 57.0001 2.86722 57.0001L6.26349 57.0001L6.26349 50.9165Z" fill="#C5CCD3" fill-opacity="1.000000" fill-rule="nonzero"/>
	<path d="M40.1411 50.9164L37.777 50.9164L37.777 57.0001L41.1733 57.0001C41.8041 57.0001 42.3202 56.484 42.3202 55.8533L42.3202 50.2513C41.698 50.6711 40.9482 50.9164 40.1411 50.9164Z" fill="#C5CCD3" fill-opacity="1.000000" fill-rule="nonzero"/>
	<g opacity="0.150000">
		<path d="M4.12878 55.8533L4.12878 50.9164L3.89932 50.9164C3.09219 50.9164 2.34241 50.6711 1.72031 50.2511L1.72031 55.8531C1.72031 56.4839 2.23642 57 2.86722 57L5.2757 57C4.6449 57.0001 4.12878 56.484 4.12878 55.8533Z" fill="#440075" fill-opacity="1.000000" fill-rule="nonzero"/>
	</g>
	<path d="M6.26355 42.1492L3.89938 42.1492C1.74585 42.1492 0 43.895 0 46.0486L0 47.1954C0 49.349 1.74597 51.0947 3.89938 51.0947L6.26343 51.0947L6.26355 42.1492Z" fill="#E6E9ED" fill-opacity="1.000000" fill-rule="nonzero"/>
	<path d="M40.141 42.1478L37.7769 42.1478L37.7769 51.0935L40.141 51.0935C42.2946 51.0935 44.0403 49.3477 44.0403 47.1942L44.0403 46.0474C44.0403 43.8936 42.2945 42.1478 40.141 42.1478Z" fill="#E6E9ED" fill-opacity="1.000000" fill-rule="nonzero"/>
	<g opacity="0.150000">
		<g opacity="0.150000">
			<path d="M2.75259 47.1941L2.75259 46.0472C2.75259 43.8936 4.49844 42.1478 6.65198 42.1478L3.89938 42.1478C1.74585 42.1478 0 43.8937 0 46.0472L0 47.1941C0 49.3477 1.74597 51.0934 3.89938 51.0934L6.65198 51.0934C4.49832 51.0934 2.75259 49.3477 2.75259 47.1941Z" fill="#440075" fill-opacity="1.000000" fill-rule="nonzero"/>
		</g>
	</g>
	<path d="M18.2138 34.5175L25.8275 34.5175L25.8275 37.3625L18.2138 37.3625L18.2138 34.5175Z" fill="#9EA7AF" fill-opacity="1.000000" fill-rule="evenodd"/>
	<g opacity="0.150000">
		<path d="M18.2138 34.5175L20.9882 34.5175L20.9882 37.3625L18.2138 37.3625L18.2138 34.5175Z" fill="#440075" fill-opacity="1.000000" fill-rule="evenodd"/>
	</g>
	<path d="M30.9763 40.078L30.9763 38.2272C30.9763 37.6832 30.5312 37.2382 29.9873 37.2382L13.7195 37.2382C13.1754 37.2382 12.7303 37.6832 12.7303 38.2272L12.7303 40.078L30.9763 40.078Z" fill="#C5CCD3" fill-opacity="1.000000" fill-rule="nonzero"/>
	<g opacity="0.150000">
		<path d="M16.1605 40.078L16.1605 38.2272C16.1605 37.6832 16.6056 37.2382 17.1497 37.2382L13.7195 37.2382C13.1754 37.2382 12.7303 37.6832 12.7303 38.2272L12.7303 40.078L16.1605 40.078Z" fill="#440075" fill-opacity="1.000000" fill-rule="nonzero"/>
	</g>
	<path d="M36.1677 39.8829L7.87256 39.8829C6.92636 39.8829 6.15219 40.6571 6.15219 41.6033L6.15219 57.0002L37.888 57.0002L37.888 41.6033C37.888 40.6571 37.114 39.8829 36.1677 39.8829Z" fill="#9EA7AF" fill-opacity="1.000000" fill-rule="nonzero"/>
	<g opacity="0.150000">
		<g opacity="0.150000">
			<path d="M11.1575 39.8829L7.87256 39.8829C6.92636 39.8829 6.15219 40.6571 6.15219 41.6033L6.15219 57.0002L9.43713 57.0002L9.43713 41.6033C9.43713 40.6571 10.2113 39.8829 11.1575 39.8829Z" fill="#440075" fill-opacity="1.000000" fill-rule="nonzero"/>
		</g>
	</g>
	<path d="M39.0613 32.9293C39.0613 33.8755 38.2871 34.6495 37.3411 34.6495L6.69937 34.6495C5.7533 34.6495 4.97913 33.8755 4.97913 32.9293L4.97913 11.2046C4.97913 10.2584 5.7533 9.48438 6.69937 9.48438L37.3411 9.48438C38.2871 9.48438 39.0613 10.2584 39.0613 11.2046L39.0613 32.9293Z" fill="#C5CCD3" fill-opacity="1.000000" fill-rule="nonzero"/>
	<g opacity="0.150000">
		<g opacity="0.150000">
			<path d="M8.25763 32.9293L8.25763 11.2046C8.25763 10.2584 9.0318 9.48438 9.97797 9.48438L6.69937 9.48438C5.7533 9.48438 4.97913 10.2584 4.97913 11.2046L4.97913 32.9294C4.97913 33.8756 5.7533 34.6497 6.69937 34.6497L9.97797 34.6497C9.0318 34.6495 8.25763 33.8755 8.25763 32.9293Z" fill="#440075" fill-opacity="1.000000" fill-rule="nonzero"/>
		</g>
	</g>
	<path d="M34.9903 22.0995C34.9903 25.3813 32.3299 28.0413 29.0482 28.0413L14.9921 28.0413C11.7102 28.0413 9.04993 25.3812 9.04993 22.0995C9.04993 18.8177 11.7102 16.1577 14.9921 16.1577L29.0482 16.1577C32.3299 16.1577 34.9903 18.8177 34.9903 22.0995Z" fill="#135693" fill-opacity="1.000000" fill-rule="nonzero"/>
	<g opacity="0.150000">
		<g opacity="0.150000">
			<path d="M12.3863 22.0995C12.3863 18.8177 15.0466 16.1577 18.3285 16.1577L14.9921 16.1577C11.7102 16.1577 9.04993 18.8179 9.04993 22.0995C9.04993 25.3813 11.7102 28.0413 14.9921 28.0413L18.3285 28.0413C15.0466 28.0413 12.3863 25.3812 12.3863 22.0995Z" fill="#440075" fill-opacity="1.000000" fill-rule="nonzero"/>
		</g>
	</g>
	<path d="M16.7091 22.1002C16.7091 23.3813 15.6747 24.4199 14.3987 24.4199C13.1226 24.4199 12.0881 23.3813 12.0881 22.1002C12.0881 20.8192 13.1226 19.7806 14.3987 19.7806C15.6747 19.7806 16.7091 20.8192 16.7091 22.1002Z" fill="#6BC1DD" fill-opacity="1.000000" fill-rule="evenodd"/>
	<path d="M31.9966 22.1C31.9966 23.3811 30.9622 24.4197 29.6861 24.4197C28.4101 24.4197 27.3756 23.3811 27.3756 22.1C27.3756 20.819 28.4101 19.7804 29.6861 19.7804C30.9622 19.7804 31.9966 20.819 31.9966 22.1Z" fill="#6BC1DD" fill-opacity="1.000000" fill-rule="evenodd"/>
	<path d="M32.2703 57.0001L32.2703 47.0017C32.2703 46.371 31.7542 45.8549 31.1234 45.8549L12.9168 45.8549C12.286 45.8549 11.7699 46.371 11.7699 47.0017L11.7699 57.0001L32.2703 57.0001Z" fill="#135693" fill-opacity="1.000000" fill-rule="nonzero"/>
	<path d="M24.0845 57L24.0845 53.7753C24.0845 53.5861 23.9296 53.4312 23.7404 53.4312L20.2997 53.4312C20.1106 53.4312 19.9557 53.5861 19.9557 53.7753L19.9557 57L24.0845 57Z" fill="#FFC502" fill-opacity="1.000000" fill-rule="nonzero"/>
	<path d="M17.2034 49.4443L14.5656 49.4443C14.1043 49.4443 13.7306 49.0706 13.7306 48.6094C13.7306 48.1482 14.1043 47.7744 14.5656 47.7744L17.2034 47.7744C17.6646 47.7744 18.0384 48.1482 18.0384 48.6094C18.0384 49.0706 17.6646 49.4443 17.2034 49.4443Z" fill="#C5CCD3" fill-opacity="1.000000" fill-rule="nonzero"/>
	<path d="M16.0563 51.4825L14.5653 51.4825C14.1041 51.4825 13.7303 51.1088 13.7303 50.6476C13.7303 50.1864 14.1041 49.8126 14.5653 49.8126L16.0563 49.8126C16.5175 49.8126 16.8913 50.1864 16.8913 50.6476C16.8913 51.1088 16.5175 51.4825 16.0563 51.4825Z" fill="#C5CCD3" fill-opacity="1.000000" fill-rule="nonzero"/>
	<path d="M17.2031 53.5214L14.5653 53.5214C14.1041 53.5214 13.7303 53.1476 13.7303 52.6864C13.7303 52.2252 14.1041 51.8514 14.5653 51.8514L17.2031 51.8514C17.6643 51.8514 18.0381 52.2252 18.0381 52.6864C18.0381 53.1476 17.6643 53.5214 17.2031 53.5214Z" fill="#C5CCD3" fill-opacity="1.000000" fill-rule="nonzero"/>
	<path d="M15.7122 55.5596L14.5653 55.5596C14.1041 55.5596 13.7303 55.1858 13.7303 54.7246C13.7303 54.2634 14.1041 53.8896 14.5653 53.8896L15.7122 53.8896C16.1734 53.8896 16.5472 54.2634 16.5472 54.7246C16.5472 55.1858 16.1733 55.5596 15.7122 55.5596Z" fill="#C5CCD3" fill-opacity="1.000000" fill-rule="nonzero"/>
	<path d="M29.0963 54.7208L27.0603 54.7208C26.5772 54.7208 26.1858 54.3293 26.1858 53.8462C26.1858 53.363 26.5773 52.9716 27.0603 52.9716L29.0963 52.9716C29.5793 52.9716 29.9709 53.3632 29.9709 53.8462C29.9709 54.3295 29.5793 54.7208 29.0963 54.7208Z" fill="#E6E9ED" fill-opacity="1.000000" fill-rule="nonzero"/>
	<path d="M29.9155 49.8529C29.9155 50.8674 29.0931 51.6898 28.0786 51.6898C27.0641 51.6898 26.2417 50.8674 26.2417 49.8529C26.2417 48.8384 27.0641 48.016 28.0786 48.016C29.0931 48.016 29.9155 48.8384 29.9155 49.8529Z" fill="#5DC647" fill-opacity="1.000000" fill-rule="evenodd"/>
	<path d="M24.1354 50.8132C24.1354 51.0072 23.9768 51.1656 23.783 51.1656L20.2574 51.1656C20.0636 51.1656 19.905 51.0072 19.905 50.8132L19.905 48.8912C19.905 48.6974 20.0636 48.5387 20.2574 48.5387L23.783 48.5387C23.9768 48.5387 24.1354 48.6974 24.1354 48.8912L24.1354 50.8132Z" fill="#6BC1DD" fill-opacity="1.000000" fill-rule="nonzero"/>
</svg>
