<svg width="217.644470" height="58.902832" viewBox="0 0 217.644 58.9028" fill="none" xmlns="http://www.w3.org/2000/svg" xmlns:xlink="http://www.w3.org/1999/xlink">
	<desc>
			Created with Pixso.
	</desc>
	<defs/>
	<path d="M17.9567 56.3025L11.9975 45.9807L20.743 30.8745L26.3004 40.501L59.1069 40.4834L49.7979 56.4448L17.9567 56.3025Z" fill="#FFAD64" fill-opacity="1.000000" fill-rule="nonzero"/>
	<path d="M64.9648 30.2344L59.0056 40.5562L41.5506 40.5354L47.1086 30.9092L30.6901 2.50684L49.1677 2.58789L64.9648 30.2344Z" fill="#ADD4D3" fill-opacity="1.000000" fill-rule="nonzero"/>
	<path d="M18.8748 2.45117L30.7932 2.45117L39.5028 17.5781L28.3871 17.5776L11.9993 45.9978L2.8306 29.9553L18.8748 2.45117Z" fill="#FB8351" fill-opacity="1.000000" fill-rule="nonzero"/>
	<path d="M32.2463 0.0617676L32.2108 0L17.4668 0L0 29.9431L11.9901 50.9224L12.0048 50.897L16.5374 58.7478L51.2023 58.9028L63.3759 38.0295L63.2949 38.0295L67.792 30.2405L50.5939 0.14209L32.2463 0.0617676ZM43.6517 20.0303L43.7437 20.0303L35.0767 4.97729L47.7413 5.03296L62.1375 30.2278L57.6314 38.0327L45.8226 38.0388L49.9399 30.9082L43.6517 20.0303ZM29.2438 4.90308L35.1536 15.1267L26.9712 15.1265L12.9627 39.4199L12.0072 41.0706L5.6619 29.968L20.2831 4.90308L29.2438 4.90308ZM23.5619 30.8542L29.8037 20.0298L37.9881 20.03L44.2772 30.9094L40.159 38.042L27.7153 38.0488L23.5619 30.8542ZM14.8338 45.9905L17.2085 41.8726L20.7398 35.7729L24.8853 42.9536L37.327 42.9468L37.3069 42.9817L54.7996 43.0024L48.3932 53.9871L19.3756 53.8572L14.8338 45.9905Z" fill="#333237" fill-opacity="1.000000" fill-rule="evenodd"/>
	<path d="M82.071 50.3735L82.071 38.896L77.829 38.896L77.829 37.6074L87.9388 37.6074L87.9388 38.896L83.6965 38.896L83.6965 50.3735L82.071 50.3735Z" fill="#FFFFFF" fill-opacity="1.000000" fill-rule="nonzero"/>
	<path d="M92.4557 50.5723C90.7773 50.5723 89.5219 50.1692 88.6893 49.363C87.8567 48.5569 87.4405 47.3147 87.4405 45.6362C87.4405 44.1296 87.7973 42.947 88.5109 42.0879C89.2377 41.2158 90.3809 40.7795 91.9403 40.7795C92.8653 40.7795 93.6252 40.9514 94.2199 41.2952C94.8278 41.6252 95.2772 42.0879 95.568 42.6826C95.8718 43.2642 96.0238 43.9248 96.0238 44.665L96.0238 46.4292L89.066 46.4292C89.1188 47.1428 89.2708 47.7043 89.5219 48.1143C89.7862 48.5237 90.176 48.821 90.6915 49.0061C91.22 49.178 91.9139 49.2639 92.7728 49.2639C93.7375 49.2639 94.623 49.0986 95.4291 48.7683L95.4291 50.0369C95.0195 50.2087 94.5569 50.3411 94.0415 50.4333C93.5393 50.5259 93.0108 50.5723 92.4557 50.5723ZM89.066 45.2598L94.5767 45.2598L94.5767 44.4866C94.5767 43.72 94.3719 43.1318 93.9622 42.7224C93.5658 42.2993 92.905 42.0879 91.9799 42.0879C90.8566 42.0879 90.0902 42.3523 89.6804 42.8809C89.2708 43.4094 89.066 44.2024 89.066 45.2598Z" fill="#FFFFFF" fill-opacity="1.000000" fill-rule="nonzero"/>
	<path d="M102.847 50.5723C101.208 50.5723 99.992 50.1494 99.1992 49.3035C98.4062 48.4446 98.0097 47.2354 98.0097 45.6758C98.0097 44.0239 98.459 42.7949 99.3577 41.9888C100.256 41.1829 101.465 40.7795 102.985 40.7795C103.607 40.7795 104.122 40.8257 104.532 40.9185C104.941 40.9976 105.338 41.1299 105.721 41.3147L105.721 42.6033C105.007 42.2598 104.195 42.0879 103.283 42.0879C102.12 42.0879 101.221 42.3655 100.587 42.9207C99.9523 43.4624 99.6352 44.3809 99.6352 45.6758C99.6352 46.9182 99.9128 47.8301 100.468 48.4114C101.023 48.9797 101.941 49.2639 103.223 49.2639C104.135 49.2639 104.974 49.092 105.741 48.7485L105.741 50.0569C105.331 50.2288 104.888 50.354 104.413 50.4333C103.95 50.5259 103.428 50.5723 102.847 50.5723Z" fill="#FFFFFF" fill-opacity="1.000000" fill-rule="nonzero"/>
	<path d="M107.563 50.3735L107.563 37.0127L109.188 37.0127L109.188 41.9883C109.625 41.6316 110.133 41.3408 110.715 41.1162C111.31 40.8914 111.997 40.7791 112.776 40.7791C113.913 40.7791 114.765 41.0566 115.334 41.6118C115.902 42.1667 116.186 43.0391 116.186 44.2283L116.186 50.3735L114.561 50.3735L114.561 44.2878C114.561 43.4685 114.376 42.9001 114.006 42.583C113.649 42.2527 113.054 42.0874 112.221 42.0874C111.693 42.0874 111.144 42.2063 110.576 42.4443C110.021 42.6689 109.559 42.9663 109.188 43.3362L109.188 50.3735L107.563 50.3735Z" fill="#FFFFFF" fill-opacity="1.000000" fill-rule="nonzero"/>
	<path d="M122.669 50.5723C121.347 50.5723 120.29 50.2815 119.497 49.7C118.704 49.1184 118.308 48.3386 118.308 47.3608C118.308 46.4622 118.585 45.689 119.14 45.0415C119.695 44.3938 120.455 43.8191 121.42 43.3169C120.904 42.8015 120.468 42.3191 120.112 41.8699C119.755 41.4204 119.576 40.8787 119.576 40.2444C119.576 39.4514 119.847 38.7839 120.389 38.2422C120.944 37.687 121.724 37.4097 122.728 37.4097C123.706 37.4097 124.466 37.6672 125.008 38.1826C125.549 38.698 125.821 39.3853 125.821 40.2444C125.821 40.958 125.629 41.5593 125.245 42.0483C124.862 42.5371 124.314 43.0327 123.6 43.5349L126.891 46.885C127.115 46.396 127.228 45.7749 127.228 45.0217L127.228 44.7441L128.517 44.7441L128.517 45.0217C128.517 45.5371 128.457 46.0393 128.338 46.5283C128.22 47.0171 128.047 47.4402 127.823 47.7969L129.607 49.6008L128.615 50.4929L127.029 48.9268C126.567 49.4951 125.966 49.9114 125.226 50.1758C124.486 50.4399 123.633 50.5723 122.669 50.5723ZM122.589 42.7419C123.211 42.3589 123.68 41.9954 123.997 41.6519C124.314 41.2949 124.473 40.8457 124.473 40.304C124.473 39.8015 124.334 39.405 124.056 39.1143C123.792 38.8105 123.349 38.6584 122.728 38.6584C122.094 38.6584 121.631 38.8171 121.341 39.1343C121.063 39.4514 120.924 39.8413 120.924 40.304C120.924 40.7268 121.07 41.1165 121.36 41.4734C121.664 41.8301 122.074 42.2529 122.589 42.7419ZM122.669 49.4026C123.435 49.4026 124.089 49.2903 124.631 49.0657C125.186 48.8276 125.655 48.4775 126.039 48.0149L122.411 44.3081C121.552 44.7046 120.911 45.134 120.488 45.5964C120.079 46.0459 119.874 46.6206 119.874 47.3213C119.874 48.0083 120.138 48.5303 120.667 48.8872C121.195 49.2307 121.863 49.4026 122.669 49.4026Z" fill="#FB8351" fill-opacity="1.000000" fill-rule="nonzero"/>
	<path d="M78.4695 28.3411L78.4695 10.665L83.6296 10.665L83.6296 24.3887L91.5893 24.3887L91.5893 28.3411L78.4695 28.3411Z" fill="#FB8351" fill-opacity="1.000000" fill-rule="nonzero"/>
	<path d="M99.8905 28.6157C97.2922 28.6157 95.3709 28.0393 94.1266 26.8865C92.9007 25.7336 92.2877 24.0503 92.2877 21.8362C92.2877 19.6404 92.9099 17.9661 94.1541 16.8132C95.3984 15.6423 97.3105 15.0566 99.8905 15.0566C102.489 15.0566 104.41 15.6423 105.654 16.8132C106.917 17.9661 107.548 19.6404 107.548 21.8362C107.548 24.0503 106.926 25.7336 105.682 26.8865C104.438 28.0393 102.507 28.6157 99.8905 28.6157ZM99.8905 24.8552C100.732 24.8552 101.336 24.6174 101.702 24.1416C102.086 23.666 102.278 22.8975 102.278 21.8362C102.278 20.7932 102.086 20.0337 101.702 19.5581C101.336 19.064 100.732 18.8169 99.8905 18.8169C99.0672 18.8169 98.4724 19.064 98.1065 19.5581C97.7405 20.0337 97.5576 20.7932 97.5576 21.8362C97.5576 22.8975 97.7405 23.666 98.1065 24.1416C98.4724 24.6174 99.0672 24.8552 99.8905 24.8552Z" fill="#FB8351" fill-opacity="1.000000" fill-rule="nonzero"/>
	<path d="M115.191 33.1719C114.55 33.1719 113.855 33.1445 113.105 33.0896C112.354 33.053 111.641 32.9797 110.964 32.8701C110.305 32.7603 109.756 32.6321 109.317 32.4856L109.317 29.1919C109.811 29.3567 110.378 29.4939 111.019 29.6038C111.677 29.7136 112.345 29.7959 113.022 29.8508C113.699 29.9055 114.321 29.9331 114.889 29.9331C115.859 29.9331 116.618 29.8782 117.167 29.7686C117.734 29.677 118.018 29.5032 118.018 29.2468C118.018 29.0273 117.926 28.8811 117.743 28.8079C117.56 28.7529 117.213 28.7253 116.7 28.7253L113.269 28.7253C111.934 28.7253 110.9 28.5151 110.168 28.0942C109.454 27.655 109.097 27.0054 109.097 26.1453C109.097 24.9377 109.765 24.0959 111.101 23.6204C110.351 23.2358 109.802 22.751 109.454 22.1655C109.107 21.5801 108.933 20.8389 108.933 19.9424C108.933 18.2588 109.5 17.0237 110.634 16.2368C111.787 15.4502 113.443 15.0566 115.602 15.0566C116.06 15.0566 116.572 15.0933 117.139 15.1665C117.707 15.2214 118.118 15.2764 118.375 15.3311L123.48 15.3311L123.37 18.46L121.641 18.46C121.97 18.8809 122.135 19.3933 122.135 19.9973C122.135 21.333 121.741 22.3943 120.955 23.1812C120.186 23.9495 118.969 24.334 117.304 24.334C117.066 24.334 116.81 24.3247 116.536 24.3064C116.261 24.2698 116.005 24.2424 115.767 24.2241C115.364 24.2607 115.017 24.334 114.724 24.4436C114.431 24.5535 114.285 24.7363 114.285 24.9927C114.285 25.1755 114.367 25.3037 114.532 25.3767C114.697 25.4316 114.925 25.4592 115.218 25.4592L118.21 25.4592C119.546 25.4592 120.598 25.7703 121.366 26.3923C122.135 27.0146 122.519 27.9294 122.519 29.1372C122.519 30.418 121.924 31.406 120.735 32.1013C119.546 32.8149 117.698 33.1719 115.191 33.1719ZM115.63 21.5068C116.435 21.5068 116.993 21.3696 117.304 21.095C117.615 20.8206 117.771 20.363 117.771 19.7227C117.771 19.0823 117.615 18.6157 117.304 18.323C116.993 18.0303 116.435 17.8838 115.63 17.8838C114.88 17.8838 114.331 18.0303 113.983 18.323C113.654 18.5974 113.489 19.064 113.489 19.7227C113.489 20.345 113.644 20.8022 113.955 21.095C114.285 21.3696 114.843 21.5068 115.63 21.5068Z" fill="#FB8351" fill-opacity="1.000000" fill-rule="nonzero"/>
	<path d="M131.895 28.6157C129.296 28.6157 127.375 28.0393 126.131 26.8865C124.905 25.7336 124.292 24.0503 124.292 21.8362C124.292 19.6404 124.914 17.9661 126.158 16.8132C127.402 15.6423 129.315 15.0566 131.895 15.0566C134.493 15.0566 136.414 15.6423 137.658 16.8132C138.922 17.9661 139.552 19.6404 139.552 21.8362C139.552 24.0503 138.93 25.7336 137.686 26.8865C136.441 28.0393 134.511 28.6157 131.895 28.6157ZM131.895 24.8552C132.736 24.8552 133.34 24.6174 133.706 24.1416C134.09 23.666 134.283 22.8975 134.283 21.8362C134.283 20.7932 134.09 20.0337 133.706 19.5581C133.34 19.064 132.736 18.8169 131.895 18.8169C131.072 18.8169 130.477 19.064 130.11 19.5581C129.744 20.0337 129.562 20.7932 129.562 21.8362C129.562 22.8975 129.744 23.666 130.11 24.1416C130.477 24.6174 131.072 24.8552 131.895 24.8552Z" fill="#FB8351" fill-opacity="1.000000" fill-rule="nonzero"/>
	<path d="M141.82 13.6016L141.82 9.86865L147.392 9.86865L147.392 13.6016L141.82 13.6016ZM142.231 28.3408L142.231 19.0911L140.339 19.0911L140.777 15.3308L147.392 15.3308L147.392 28.3408L142.231 28.3408Z" fill="#FFFFFF" fill-opacity="1.000000" fill-rule="nonzero"/>
	<path d="M149.867 34.2698L149.867 15.3311L154.342 15.3311L154.588 16.374C155.118 15.9531 155.695 15.6331 156.317 15.4136C156.958 15.1755 157.698 15.0566 158.541 15.0566C160.48 15.0566 161.972 15.5505 163.015 16.5386C164.075 17.5085 164.606 19.1646 164.606 21.5066C164.606 23.8306 164.048 25.5964 162.932 26.804C161.816 28.0117 160.279 28.6155 158.321 28.6155C157.022 28.6155 155.924 28.3687 155.027 27.8745L155.027 34.2698L149.867 34.2698ZM157.003 24.8552C157.754 24.8552 158.331 24.5898 158.733 24.0593C159.136 23.5286 159.337 22.7053 159.337 21.5891C159.337 20.5095 159.144 19.7776 158.76 19.3933C158.394 19.009 157.827 18.8169 157.058 18.8169C156.29 18.8169 155.613 19.073 155.027 19.5854L155.027 24.1965C155.321 24.416 155.613 24.5808 155.906 24.6907C156.198 24.8003 156.564 24.8552 157.003 24.8552Z" fill="#FFFFFF" fill-opacity="1.000000" fill-rule="nonzero"/>
	<path d="M171.483 28.6155C170.367 28.6155 169.315 28.5332 168.327 28.3687C167.357 28.2222 166.589 28.03 166.021 27.7922L166.021 24.0867C166.661 24.3796 167.421 24.6082 168.299 24.7729C169.196 24.9377 169.956 25.02 170.576 25.02C171.236 25.02 171.73 25.0017 172.059 24.9651C172.408 24.9285 172.58 24.7729 172.58 24.4985C172.58 24.1875 172.279 23.9495 171.675 23.7849C171.072 23.6201 170.312 23.3823 169.398 23.0713C168.207 22.6504 167.319 22.1562 166.734 21.5891C166.149 21.0217 165.857 20.1985 165.857 19.1187C165.857 17.8196 166.369 16.8225 167.394 16.1272C168.418 15.4136 170.028 15.0566 172.223 15.0566C173.066 15.0566 173.935 15.1206 174.831 15.2488C175.727 15.3767 176.432 15.5232 176.945 15.688L176.945 19.311C176.395 19.073 175.792 18.8992 175.134 18.7896C174.493 18.6797 173.908 18.6248 173.377 18.6248C172.792 18.6248 172.269 18.6521 171.812 18.707C171.354 18.762 171.126 18.9175 171.126 19.1736C171.126 19.4663 171.383 19.677 171.895 19.8049C172.425 19.9331 173.13 20.1343 174.008 20.4089C174.997 20.7017 175.764 21.0217 176.314 21.3696C176.881 21.7173 177.275 22.1379 177.494 22.6321C177.731 23.1262 177.851 23.739 177.851 24.4712C177.851 25.7886 177.31 26.8132 176.231 27.5452C175.169 28.2588 173.586 28.6155 171.483 28.6155Z" fill="#FFFFFF" fill-opacity="1.000000" fill-rule="nonzero"/>
	<path d="M184.501 28.615C182.982 28.615 181.793 28.1851 180.933 27.325C180.074 26.4651 179.644 25.2024 179.644 23.5374L179.644 15.3306L184.803 15.3306L184.803 23.1257C184.803 24.26 185.38 24.8274 186.532 24.8274C186.953 24.8274 187.365 24.7358 187.768 24.553C188.17 24.3699 188.49 24.1411 188.728 23.8667L188.728 15.3306L193.888 15.3306L193.888 28.3406L189.058 28.3406L188.921 27.3525C188.409 27.7185 187.776 28.0205 187.027 28.2581C186.295 28.4961 185.453 28.615 184.501 28.615Z" fill="#FFFFFF" fill-opacity="1.000000" fill-rule="nonzero"/>
	<path d="M196.346 28.3411L196.346 15.3311L201.121 15.3311L201.258 16.374C201.826 15.9897 202.457 15.6787 203.152 15.4409C203.866 15.1846 204.644 15.0566 205.486 15.0566C206.326 15.0566 206.986 15.1755 207.461 15.4136C207.938 15.6511 208.322 15.999 208.614 16.4563C209.199 16.0356 209.859 15.697 210.591 15.4409C211.34 15.1846 212.219 15.0566 213.226 15.0566C214.744 15.0566 215.86 15.4592 216.574 16.2642C217.288 17.051 217.644 18.2588 217.644 19.8872L217.644 28.3411L212.566 28.3411L212.566 20.4912C212.566 19.9055 212.448 19.4939 212.209 19.2561C211.973 18.9998 211.579 18.8718 211.029 18.8718C210.316 18.8718 209.73 19.1279 209.274 19.6401C209.309 19.8782 209.328 20.1069 209.328 20.3264C209.328 20.5278 209.328 20.7566 209.328 21.0127L209.328 28.3411L204.552 28.3411L204.552 20.4089C204.552 19.8782 204.461 19.4939 204.278 19.2561C204.094 18.9998 203.747 18.8718 203.235 18.8718C202.887 18.8718 202.548 18.9634 202.219 19.1462C201.889 19.3293 201.596 19.5488 201.341 19.8049L201.341 28.3411L196.346 28.3411Z" fill="#FFFFFF" fill-opacity="1.000000" fill-rule="nonzero"/>
	<path d="M138.011 50.7361C136.636 50.7361 135.493 50.4783 134.581 49.9629C133.683 49.4343 133.01 48.7007 132.56 47.7625C132.11 46.811 131.886 45.7009 131.886 44.4324C131.886 43.0447 132.098 41.8354 132.52 40.8047C132.943 39.7739 133.603 38.981 134.502 38.4258C135.402 37.8577 136.563 37.5735 137.991 37.5735C138.731 37.5735 139.398 37.6262 139.993 37.7319C140.601 37.8379 141.169 37.9832 141.699 38.1682L141.699 39.5955C141.169 39.3972 140.608 39.2451 140.013 39.1394C139.418 39.0205 138.791 38.9609 138.131 38.9609C136.98 38.9609 136.068 39.1792 135.395 39.6152C134.721 40.0513 134.238 40.679 133.947 41.4985C133.656 42.3179 133.511 43.2957 133.511 44.4324C133.511 46.0049 133.882 47.2207 134.621 48.0798C135.375 48.9255 136.558 49.3484 138.169 49.3484C138.764 49.3484 139.365 49.302 139.973 49.2095C140.594 49.1172 141.169 48.9717 141.699 48.7734L141.699 50.2207C141.182 50.3792 140.621 50.5046 140.013 50.5972C139.418 50.6897 138.751 50.7361 138.011 50.7361Z" fill="#FFFFFF" fill-opacity="1.000000" fill-rule="nonzero"/>
	<path d="M148.373 50.7356C146.734 50.7356 145.538 50.3191 144.785 49.4866C144.045 48.6409 143.676 47.425 143.676 45.8391C143.676 44.2666 144.053 43.0574 144.805 42.2117C145.558 41.3657 146.749 40.9429 148.373 40.9429C149.999 40.9429 151.189 41.3657 151.941 42.2117C152.695 43.0574 153.071 44.2666 153.071 45.8391C153.071 47.425 152.702 48.6409 151.961 49.4866C151.222 50.3191 150.026 50.7356 148.373 50.7356ZM148.373 49.3479C149.496 49.3479 150.29 49.0703 150.752 48.5154C151.215 47.947 151.446 47.0552 151.446 45.8391C151.446 44.6233 151.209 43.738 150.732 43.1829C150.27 42.6145 149.483 42.3303 148.373 42.3303C147.264 42.3303 146.47 42.6145 145.995 43.1829C145.533 43.738 145.301 44.6233 145.301 45.8391C145.301 47.0552 145.533 47.947 145.995 48.5154C146.457 49.0703 147.25 49.3479 148.373 49.3479Z" fill="#FFFFFF" fill-opacity="1.000000" fill-rule="nonzero"/>
	<path d="M155.058 50.5376L155.058 49.1699L156.525 49.1699L156.525 50.5376L155.058 50.5376Z" fill="#FFFFFF" fill-opacity="1.000000" fill-rule="nonzero"/>
</svg>
