<svg width="212.299072" height="59.000000" viewBox="0 0 212.299 59" fill="none" xmlns="http://www.w3.org/2000/svg" xmlns:xlink="http://www.w3.org/1999/xlink">
	<desc>
			Created with Pixso.
	</desc>
	<defs/>
	<path d="M105.236 6.43506C107.289 4.38232 110.617 4.38232 112.67 6.43506C114.723 8.48779 114.723 11.8162 112.67 13.8689L100.154 26.3845C96.5609 21.5688 96.9512 14.7197 101.325 10.3457L105.236 6.43506Z" fill="#4F9E91" fill-opacity="1.000000" fill-rule="evenodd"/>
	<path d="M123.127 34.6719C125.181 36.7246 125.181 40.053 123.127 42.1057C121.076 44.1587 117.747 44.1587 115.694 42.1057L103.179 29.5903C107.994 25.9971 114.843 26.3872 119.217 30.7612L123.127 34.6719Z" fill="#EBE1C5" fill-opacity="1.000000" fill-rule="evenodd"/>
	<path d="M94.8905 52.5645C92.8378 54.6174 89.5095 54.6174 87.4568 52.5645C85.4039 50.5117 85.4039 47.1833 87.4568 45.1306L99.9721 32.6152C103.565 37.4309 103.175 44.28 98.8012 48.6538L94.8905 52.5645Z" fill="#EBCC6E" fill-opacity="1.000000" fill-rule="evenodd"/>
	<path d="M76.9986 24.3267C74.9458 22.2737 74.9458 18.9456 76.9986 16.8926C79.0515 14.8398 82.3797 14.8398 84.4326 16.8926L96.9481 29.4082C92.1323 33.0015 85.2831 32.6111 80.9092 28.2373L76.9986 24.3267Z" fill="#ED834E" fill-opacity="1.000000" fill-rule="evenodd"/>
	<path d="M102.439 51.0315C105.466 47.666 106.873 43.3596 106.659 39.1196L112.67 45.1304C112.685 45.1453 112.7 45.1602 112.715 45.175L112.715 49.4663C112.715 52.3694 110.362 54.7229 107.458 54.7229C105.1 54.7229 103.105 53.1702 102.439 51.0315Z" fill="#ED834E" fill-opacity="1.000000" fill-rule="evenodd"/>
	<path d="M78.5315 31.875C81.8968 34.9021 86.2033 36.3088 90.4433 36.0955L84.4328 42.1062C84.4177 42.1211 84.4028 42.1362 84.388 42.1511L80.0968 42.1511C77.1936 42.1514 74.8402 39.7976 74.8402 36.8945C74.8402 34.5366 76.3928 32.5413 78.5315 31.875Z" fill="#4F9E91" fill-opacity="1.000000" fill-rule="evenodd"/>
	<path d="M121.595 27.125C118.23 24.0979 113.923 22.6909 109.683 22.9043L115.694 16.8938C115.709 16.8789 115.724 16.8638 115.739 16.8486L120.03 16.8486C122.934 16.8486 125.287 19.2021 125.287 22.1052C125.287 24.4634 123.734 26.4587 121.595 27.125Z" fill="#EBCC6E" fill-opacity="1.000000" fill-rule="evenodd"/>
	<path d="M97.6878 7.96777C94.6607 11.333 93.254 15.6396 93.4673 19.8796L87.4568 13.8691C87.4417 13.8542 87.4268 13.8391 87.4117 13.8242L87.4117 9.53296C87.4117 6.62988 89.7651 4.27637 92.6682 4.27637C95.0262 4.27637 97.0216 5.8291 97.6878 7.96777Z" fill="#EBE1C5" fill-opacity="1.000000" fill-rule="evenodd"/>
	<path d="M92.6684 0C87.4033 0 83.135 4.26831 83.135 9.53345L83.135 11.3877C79.9674 10.5601 76.457 11.3872 73.9747 13.8694C70.2517 17.5925 70.2517 23.6287 73.9747 27.3518L75.2857 28.6628C72.4607 30.3174 70.5635 33.3845 70.5635 36.8948C70.5635 42.1599 74.8318 46.4282 80.0969 46.4282L81.9509 46.4282C81.1233 49.5959 81.9505 53.1064 84.4327 55.5884C88.1558 59.3115 94.192 59.3115 97.9151 55.5884L101.826 51.678C105.275 48.2283 106.886 43.6362 106.659 39.1196L112.67 45.1304C116.393 48.8533 122.429 48.8533 126.152 45.1304C129.876 41.4072 129.876 35.3711 126.152 31.6482L124.842 30.3372C127.666 28.6826 129.563 25.6155 129.563 22.1052C129.563 16.8401 125.294 12.5718 120.03 12.5718L118.176 12.5718C119.004 9.40405 118.176 5.89355 115.694 3.41113C111.971 -0.311768 105.935 -0.311768 102.212 3.41113L98.3011 7.32178C94.8515 10.7715 93.2403 15.3635 93.4677 19.8801L87.457 13.8694C87.4419 13.8545 87.427 13.8396 87.4119 13.8247L87.4119 9.53345C87.4119 6.63037 89.7653 4.27686 92.6684 4.27686C95.0265 4.27686 97.0218 5.82935 97.688 7.96802C97.8855 7.74854 98.0898 7.53296 98.301 7.32178L100.901 4.72217C99.2459 1.89722 96.1788 0 92.6684 0ZM115.739 16.8486C115.724 16.8635 115.709 16.8787 115.694 16.8936L109.683 22.9041C113.924 22.6907 118.23 24.0974 121.595 27.1248C123.734 26.4585 125.287 24.4629 125.287 22.1052C125.287 19.2019 122.934 16.8486 120.03 16.8486L115.739 16.8486ZM84.3878 42.1514C84.4027 42.1362 84.4177 42.1213 84.4327 42.1062L90.4432 36.0957C86.2032 36.3091 81.8969 34.9023 78.5316 31.8752C76.3929 32.5415 74.8402 34.5369 74.8402 36.8948C74.8402 39.7981 77.1938 42.1514 80.0969 42.1514L84.3878 42.1514ZM78.3677 31.7258C78.2045 31.5752 78.0437 31.4207 77.8853 31.2622L77.8853 31.2625C78.0437 31.4207 78.2045 31.5752 78.3677 31.7258ZM107.458 59C103.948 59 100.881 57.1025 99.2261 54.2776L101.826 51.678C102.037 51.4668 102.241 51.2512 102.439 51.0317C103.105 53.1704 105.1 54.7231 107.458 54.7231C110.361 54.7231 112.715 52.3696 112.715 49.4666L112.715 45.1753C113.947 46.3911 115.427 47.2036 116.992 47.6123L116.992 49.4666C116.992 54.7317 112.723 59 107.458 59ZM112.67 6.4353C110.617 4.38257 107.289 4.38257 105.236 6.4353L101.325 10.3459C96.9513 14.72 96.561 21.5691 100.154 26.3848L112.67 13.8694C114.723 11.8164 114.723 8.48828 112.67 6.4353ZM123.127 42.1062C125.181 40.0532 125.181 36.7251 123.127 34.6721L119.217 30.7617C114.843 26.3877 107.994 25.9973 103.178 29.5906L115.694 42.1062C117.747 44.1589 121.076 44.1589 123.127 42.1062ZM94.8908 52.5645C92.838 54.6172 89.5097 54.6172 87.4569 52.5645C85.4042 50.5115 85.4042 47.1833 87.4569 45.1304L99.9724 32.615C103.566 37.4307 103.175 44.2798 98.8014 48.6538L94.8908 52.5645ZM76.9988 16.8936C74.9461 18.9463 74.9461 22.2747 76.9988 24.3274L80.9094 28.238C85.2834 32.6121 92.1325 33.0024 96.9482 29.4089L84.4327 16.8936C82.3799 14.8408 79.0517 14.8408 76.9988 16.8936Z" fill="#3D3A2C" fill-opacity="1.000000" fill-rule="evenodd"/>
	<path d="M0 19.2781L4.67521 19.2781L4.67521 33.8057L12.705 33.8057L12.705 37.7415L0 37.7415L0 19.2781Z" fill="#FFFFFF" fill-opacity="1.000000" fill-rule="nonzero"/>
	<path d="M21.1937 38.1375C19.6265 38.1375 18.2529 37.8557 17.0731 37.2922C15.8932 36.7112 14.9776 35.9187 14.326 34.915C13.6922 33.8938 13.3752 32.7227 13.3752 31.4019C13.3752 30.0813 13.6922 28.9192 14.326 27.9155C14.9776 26.894 15.8932 26.1016 17.0731 25.5381C18.2529 24.957 19.6265 24.6665 21.1937 24.6665C22.761 24.6665 24.1344 24.957 25.3142 25.5381C26.4941 26.1016 27.401 26.894 28.0348 27.9155C28.6864 28.9192 29.0121 30.0813 29.0121 31.4019C29.0121 32.7227 28.6864 33.8938 28.0348 34.915C27.401 35.9187 26.4941 36.7112 25.3142 37.2922C24.1344 37.8557 22.761 38.1375 21.1937 38.1375ZM21.1937 34.5188C22.127 34.5188 22.8666 34.2458 23.4124 33.7C23.976 33.1365 24.2576 32.3706 24.2576 31.4019C24.2576 30.4336 23.976 29.6763 23.4124 29.1304C22.8666 28.5669 22.127 28.2852 21.1937 28.2852C20.2603 28.2852 19.512 28.5669 18.9486 29.1304C18.4026 29.6763 18.1297 30.4336 18.1297 31.4019C18.1297 32.3706 18.4026 33.1365 18.9486 33.7C19.512 34.2458 20.2603 34.5188 21.1937 34.5188Z" fill="#FFFFFF" fill-opacity="1.000000" fill-rule="nonzero"/>
	<path d="M37.7443 43.8167C36.8991 43.8167 36.045 43.7373 35.1821 43.5789C34.3369 43.4204 33.606 43.209 32.9898 42.9448L32.9898 39.7224C34.3808 40.321 35.9657 40.6204 37.7443 40.6204C39.0297 40.6204 39.9542 40.3562 40.5177 39.8281C41.0988 39.2998 41.3894 38.5249 41.3894 37.5037L41.3894 36.7375C40.8787 37.178 40.2447 37.5212 39.4875 37.7678C38.7479 38.0144 37.9555 38.1375 37.1103 38.1375C35.772 38.1375 34.5922 37.8557 33.5708 37.2922C32.5496 36.7288 31.7483 35.9363 31.1672 34.915C30.6037 33.8938 30.322 32.7227 30.322 31.4019C30.322 30.0637 30.6037 28.8838 31.1672 27.8625C31.7307 26.8413 32.5231 26.0576 33.5445 25.5117C34.5657 24.9482 35.7368 24.6665 37.0575 24.6665C38.8713 24.6665 40.368 25.2212 41.5478 26.3306L41.5478 25.0627L46.0382 25.0627L46.0382 36.8696C46.0382 39.0708 45.3602 40.7791 44.0043 41.9941C42.6661 43.209 40.5793 43.8167 37.7443 43.8167ZM38.2725 34.5454C38.9945 34.5454 39.6372 34.3604 40.2007 33.9905C40.7642 33.6208 41.1604 33.1277 41.3894 32.5115L41.3894 30.2927C41.1428 29.6763 40.7378 29.1921 40.1743 28.8398C39.6108 28.4702 38.9769 28.2852 38.2725 28.2852C37.3217 28.2852 36.5556 28.5669 35.9745 29.1304C35.3934 29.6763 35.1028 30.4246 35.1028 31.3757C35.1028 32.344 35.3934 33.1189 35.9745 33.7C36.5556 34.2634 37.3217 34.5454 38.2725 34.5454Z" fill="#FFFFFF" fill-opacity="1.000000" fill-rule="nonzero"/>
	<path d="M55.0361 38.1375C53.4689 38.1375 52.0955 37.8557 50.9156 37.2922C49.7358 36.7112 48.82 35.9187 48.1686 34.915C47.5346 33.8938 47.2176 32.7227 47.2176 31.4019C47.2176 30.0813 47.5346 28.9192 48.1686 27.9155C48.82 26.894 49.7358 26.1016 50.9156 25.5381C52.0955 24.957 53.4689 24.6665 55.0361 24.6665C56.6034 24.6665 57.9768 24.957 59.1566 25.5381C60.3365 26.1016 61.2434 26.894 61.8774 27.9155C62.5288 28.9192 62.8547 30.0813 62.8547 31.4019C62.8547 32.7227 62.5288 33.8938 61.8774 34.915C61.2434 35.9187 60.3365 36.7112 59.1566 37.2922C57.9768 37.8557 56.6034 38.1375 55.0361 38.1375ZM55.0361 34.5188C55.9694 34.5188 56.709 34.2458 57.255 33.7C57.8184 33.1365 58.1002 32.3706 58.1002 31.4019C58.1002 30.4336 57.8184 29.6763 57.255 29.1304C56.709 28.5669 55.9694 28.2852 55.0361 28.2852C54.1029 28.2852 53.3544 28.5669 52.791 29.1304C52.245 29.6763 51.9721 30.4336 51.9721 31.4019C51.9721 32.3706 52.245 33.1365 52.791 33.7C53.3544 34.2458 54.1029 34.5188 55.0361 34.5188Z" fill="#FFFFFF" fill-opacity="1.000000" fill-rule="nonzero"/>
	<path d="M137.418 19.2781L142.094 19.2781L142.094 37.7415L137.418 37.7415L137.418 19.2781Z" fill="#FFFFFF" fill-opacity="1.000000" fill-rule="nonzero"/>
	<path d="M144.461 25.0627L148.952 25.0627L148.952 26.3306C150.131 25.2212 151.627 24.6665 153.441 24.6665C154.762 24.6665 155.933 24.9482 156.954 25.5117C157.976 26.0576 158.768 26.8413 159.331 27.8625C159.895 28.8662 160.177 30.0374 160.177 31.3757C160.177 32.6963 159.895 33.876 159.331 34.915C158.768 35.9363 157.976 36.7288 156.954 37.2922C155.951 37.8557 154.78 38.1375 153.441 38.1375C152.596 38.1375 151.786 38.0054 151.012 37.7412C150.255 37.4949 149.62 37.1514 149.11 36.7112L149.11 43.5259L144.461 43.5259L144.461 25.0627ZM152.227 34.5188C153.178 34.5188 153.944 34.2371 154.524 33.6736C155.105 33.1101 155.397 32.344 155.397 31.3757C155.397 30.407 155.105 29.6499 154.524 29.104C153.944 28.5405 153.178 28.2588 152.227 28.2588C151.522 28.2588 150.888 28.4436 150.324 28.8135C149.761 29.1658 149.357 29.6499 149.11 30.2661L149.11 32.5115C149.357 33.1277 149.761 33.6208 150.324 33.9905C150.888 34.3428 151.522 34.5188 152.227 34.5188Z" fill="#FFFFFF" fill-opacity="1.000000" fill-rule="nonzero"/>
	<path d="M167.107 38.1375C166.087 38.1375 165.022 38.032 163.912 37.8206C162.803 37.627 161.921 37.3452 161.27 36.9753L161.27 33.5679C161.992 33.9905 162.855 34.3428 163.859 34.6245C164.88 34.8887 165.813 35.0208 166.659 35.0208C167.274 35.0208 167.724 34.9766 168.005 34.8887C168.288 34.8005 168.428 34.6245 168.428 34.3604C168.428 34.1489 168.332 33.9817 168.138 33.8584C167.962 33.7178 167.627 33.5767 167.134 33.4358C166.659 33.2773 166.104 33.1101 165.47 32.9341C164.396 32.6169 163.551 32.2913 162.934 31.9568C162.318 31.6221 161.861 31.1995 161.56 30.6887C161.261 30.1782 161.112 29.5354 161.112 28.7607C161.112 27.387 161.649 26.3657 162.723 25.6965C163.815 25.0098 165.303 24.6665 167.187 24.6665C168.103 24.6665 169.063 24.7634 170.066 24.957C171.088 25.1509 171.853 25.406 172.364 25.7231L172.364 29.0776C171.836 28.7256 171.131 28.4348 170.251 28.2061C169.388 27.9771 168.578 27.8625 167.82 27.8625C167.223 27.8625 166.755 27.9241 166.421 28.0474C166.087 28.1531 165.92 28.3467 165.92 28.6287C165.92 28.8928 166.087 29.0952 166.421 29.2361C166.755 29.377 167.354 29.553 168.217 29.7644C168.78 29.9053 169.018 29.9668 168.93 29.9492C170.057 30.2485 170.928 30.5833 171.545 30.9531C172.162 31.3228 172.592 31.7629 172.839 32.2737C173.104 32.7666 173.236 33.4006 173.236 34.1755C173.236 35.3906 172.708 36.3589 171.651 37.0811C170.612 37.7854 169.097 38.1375 167.107 38.1375Z" fill="#FFFFFF" fill-opacity="1.000000" fill-rule="nonzero"/>
	<path d="M180.176 38.1379C178.434 38.1379 177.122 37.6536 176.242 36.6853C175.379 35.7166 174.947 34.4399 174.947 32.8552L174.947 25.063L179.596 25.063L179.596 32.3269C179.596 33.7883 180.256 34.5193 181.577 34.5193C182.176 34.5193 182.722 34.3784 183.215 34.0964C183.707 33.8147 184.112 33.4011 184.429 32.8552L184.429 25.063L189.078 25.063L189.078 37.7417L184.589 37.7417L184.589 36.3682C184.043 36.9492 183.382 37.3894 182.607 37.6887C181.833 37.9883 181.022 38.1379 180.176 38.1379Z" fill="#FFFFFF" fill-opacity="1.000000" fill-rule="nonzero"/>
	<path d="M191.458 25.0627L195.764 25.0627L195.764 26.4363C196.292 25.8728 196.9 25.4414 197.587 25.1418C198.273 24.825 199.004 24.6665 199.779 24.6665C200.73 24.6665 201.487 24.8074 202.051 25.0891C202.632 25.3708 203.098 25.7935 203.45 26.3569C203.978 25.8286 204.622 25.4148 205.379 25.1155C206.137 24.8162 206.903 24.6665 207.676 24.6665C209.349 24.6665 210.539 25.0979 211.243 25.9609C211.947 26.8062 212.299 28.0298 212.299 29.6323L212.299 37.7412L207.861 37.7412L207.861 30.2927C207.861 29.5884 207.73 29.0776 207.465 28.7607C207.202 28.4436 206.761 28.2852 206.146 28.2852C205.353 28.2852 204.709 28.5669 204.217 29.1304C204.234 29.4297 204.243 29.8877 204.243 30.5039L204.243 37.7412L199.806 37.7412L199.806 30.1079C199.806 29.4563 199.692 28.9895 199.462 28.7078C199.233 28.426 198.828 28.2852 198.248 28.2852C197.349 28.2852 196.575 28.7871 195.923 29.7908L195.923 37.7412L191.458 37.7412L191.458 25.0627Z" fill="#FFFFFF" fill-opacity="1.000000" fill-rule="nonzero"/>
</svg>
