<svg width="44.976517" height="56.318359" viewBox="0 0 44.9765 56.3184" fill="none" xmlns="http://www.w3.org/2000/svg" xmlns:xlink="http://www.w3.org/1999/xlink">
	<desc>
			Created with Pixso.
	</desc>
	<defs/>
	<path id="Vector" d="M22.486 5.67285C22.1901 5.67285 21.9046 5.62891 21.6359 5.54785L21.6359 9.47998L23.336 9.47998L23.336 5.54785C23.0673 5.62891 22.7818 5.67285 22.486 5.67285Z" fill="#135693" fill-opacity="1.000000" fill-rule="nonzero"/>
	<path id="Vector" d="M25.4774 2.8916C25.4774 4.48877 24.1392 5.78369 22.4884 5.78369C20.8376 5.78369 19.4994 4.48877 19.4994 2.8916C19.4994 1.29492 20.8376 0 22.4884 0C24.1392 0 25.4774 1.29492 25.4774 2.8916Z" fill="#6BC1DD" fill-opacity="1.000000" fill-rule="evenodd"/>
	<g opacity="0.150000">
		<g opacity="0.150000">
			<path id="Vector" d="M22.0154 2.8916C22.0154 1.72949 22.7242 0.728027 23.7465 0.268555C23.3639 0.0966797 22.938 0 22.4884 0C20.8376 0 19.4994 1.29492 19.4994 2.8916C19.4994 4.48877 20.8376 5.7832 22.4884 5.7832C22.938 5.7832 23.3639 5.68701 23.7465 5.51514C22.7242 5.05518 22.0154 4.05371 22.0154 2.8916Z" fill="#440075" fill-opacity="1.000000" fill-rule="nonzero"/>
		</g>
	</g>
	<path id="Vector" d="M41.5405 13.9946L39.7779 13.9946L39.7779 29.7256L41.5405 29.7256C42.5068 29.7256 43.2974 28.9609 43.2974 28.0264L43.2974 15.6943C43.2974 14.7598 42.5068 13.9946 41.5405 13.9946Z" fill="#9EA7AF" fill-opacity="1.000000" fill-rule="nonzero"/>
	<path id="Vector" d="M5.19864 13.9941L3.3197 13.9941C2.35342 13.9941 1.5629 14.7593 1.5629 15.6938L1.5629 28.0254C1.5629 28.9604 2.35342 29.7251 3.3197 29.7251L5.19852 29.7251L5.19864 13.9941Z" fill="#9EA7AF" fill-opacity="1.000000" fill-rule="nonzero"/>
	<path id="Vector" d="M6.39664 50.3071L3.98221 50.3071C3.15793 50.3071 2.39218 50.0649 1.75687 49.6499L1.75687 55.1851C1.75687 55.8081 2.28397 56.3179 2.92816 56.3179L6.39664 56.3179L6.39664 50.3071Z" fill="#C5CCD3" fill-opacity="1.000000" fill-rule="nonzero"/>
	<path id="Vector" d="M40.9942 50.3066L38.5799 50.3066L38.5799 56.3174L42.0484 56.3174C42.6926 56.3174 43.2197 55.8076 43.2197 55.1841L43.2197 49.6494C42.5842 50.064 41.8185 50.3066 40.9942 50.3066Z" fill="#C5CCD3" fill-opacity="1.000000" fill-rule="nonzero"/>
	<g opacity="0.150000">
		<path id="Vector" d="M4.21655 55.1846L4.21655 50.3066L3.98221 50.3066C3.15793 50.3066 2.39218 50.0645 1.75687 49.6494L1.75687 55.1846C1.75687 55.8076 2.28397 56.3174 2.92816 56.3174L5.38782 56.3174C4.74362 56.3174 4.21655 55.8076 4.21655 55.1846Z" fill="#440075" fill-opacity="1.000000" fill-rule="nonzero"/>
	</g>
	<path id="Vector" d="M6.3967 41.644L3.98227 41.644C1.78296 41.644 0 43.3691 0 45.4966L0 46.6299C0 48.7578 1.78308 50.4824 3.98227 50.4824L6.39658 50.4824L6.3967 41.644Z" fill="#E6E9ED" fill-opacity="1.000000" fill-rule="nonzero"/>
	<path id="Vector" d="M40.9942 41.6436L38.5799 41.6436L38.5799 50.4819L40.9942 50.4819C43.1937 50.4819 44.9765 48.7573 44.9765 46.6294L44.9765 45.4961C44.9765 43.3682 43.1935 41.6436 40.9942 41.6436Z" fill="#E6E9ED" fill-opacity="1.000000" fill-rule="nonzero"/>
	<g opacity="0.150000">
		<g opacity="0.150000">
			<path id="Vector" d="M2.8111 46.6294L2.8111 45.4961C2.8111 43.3682 4.59406 41.6436 6.79337 41.6436L3.98227 41.6436C1.78296 41.6436 0 43.3687 0 45.4961L0 46.6294C0 48.7573 1.78308 50.4819 3.98227 50.4819L6.79337 50.4819C4.59396 50.4819 2.8111 48.7573 2.8111 46.6294Z" fill="#440075" fill-opacity="1.000000" fill-rule="nonzero"/>
		</g>
	</g>
	<path id="Vector" d="M18.601 34.1045L26.3766 34.1045L26.3766 36.9155L18.601 36.9155L18.601 34.1045Z" fill="#9EA7AF" fill-opacity="1.000000" fill-rule="evenodd"/>
	<g opacity="0.150000">
		<path id="Vector" d="M18.601 34.1045L21.4344 34.1045L21.4344 36.9155L18.601 36.9155L18.601 34.1045Z" fill="#440075" fill-opacity="1.000000" fill-rule="evenodd"/>
	</g>
	<path id="Vector" d="M31.6346 39.5977L31.6346 37.769C31.6346 37.2319 31.1801 36.792 30.6246 36.792L14.011 36.792C13.4553 36.792 13.0008 37.2319 13.0008 37.769L13.0008 39.5977L31.6346 39.5977Z" fill="#C5CCD3" fill-opacity="1.000000" fill-rule="nonzero"/>
	<g opacity="0.150000">
		<path id="Vector" d="M16.5038 39.5977L16.5038 37.769C16.5038 37.2319 16.9584 36.792 17.5141 36.792L14.011 36.792C13.4553 36.792 13.0008 37.2319 13.0008 37.769L13.0008 39.5977L16.5038 39.5977Z" fill="#440075" fill-opacity="1.000000" fill-rule="nonzero"/>
	</g>
	<path id="Vector" d="M36.9364 39.4062L8.0397 39.4062C7.07339 39.4062 6.28278 40.1714 6.28278 41.106L6.28278 56.3184L38.6933 56.3184L38.6933 41.106C38.6933 40.1714 37.9028 39.4062 36.9364 39.4062Z" fill="#9EA7AF" fill-opacity="1.000000" fill-rule="nonzero"/>
	<g opacity="0.150000">
		<g opacity="0.150000">
			<path id="Vector" d="M11.3945 39.4062L8.0397 39.4062C7.07339 39.4062 6.28278 40.1714 6.28278 41.106L6.28278 56.3184L9.63757 56.3184L9.63757 41.106C9.63757 40.1714 10.4282 39.4062 11.3945 39.4062Z" fill="#440075" fill-opacity="1.000000" fill-rule="nonzero"/>
		</g>
	</g>
	<path id="Vector" d="M39.8915 32.5347C39.8915 33.4697 39.1009 34.2344 38.1347 34.2344L6.84161 34.2344C5.87543 34.2344 5.08481 33.4697 5.08481 32.5347L5.08481 11.0703C5.08481 10.1353 5.87543 9.37061 6.84161 9.37061L38.1347 9.37061C39.1009 9.37061 39.8915 10.1353 39.8915 11.0703L39.8915 32.5347Z" fill="#C5CCD3" fill-opacity="1.000000" fill-rule="nonzero"/>
	<g opacity="0.150000">
		<g opacity="0.150000">
			<path id="Vector" d="M8.43301 32.5347L8.43301 11.0703C8.43301 10.1353 9.22363 9.37061 10.1899 9.37061L6.84161 9.37061C5.87543 9.37061 5.08481 10.1353 5.08481 11.0703L5.08481 32.5347C5.08481 33.4697 5.87543 34.2344 6.84161 34.2344L10.1899 34.2344C9.22363 34.2344 8.43301 33.4697 8.43301 32.5347Z" fill="#440075" fill-opacity="1.000000" fill-rule="nonzero"/>
		</g>
	</g>
	<path id="Vector" d="M35.734 21.8345C35.734 25.0771 33.017 27.7051 29.6657 27.7051L15.3107 27.7051C11.9591 27.7051 9.24222 25.0771 9.24222 21.8345C9.24222 18.5923 11.9591 15.9639 15.3107 15.9639L29.6657 15.9639C33.017 15.9639 35.734 18.5923 35.734 21.8345Z" fill="#135693" fill-opacity="1.000000" fill-rule="nonzero"/>
	<g opacity="0.150000">
		<g opacity="0.150000">
			<path id="Vector" d="M12.6495 21.8345C12.6495 18.5923 15.3664 15.9639 18.718 15.9639L15.3107 15.9639C11.9591 15.9639 9.24222 18.5923 9.24222 21.8345C9.24222 25.0771 11.9591 27.7051 15.3107 27.7051L18.718 27.7051C15.3664 27.7051 12.6495 25.0771 12.6495 21.8345Z" fill="#440075" fill-opacity="1.000000" fill-rule="nonzero"/>
		</g>
	</g>
	<path id="Vector" d="M17.0643 21.8369C17.0643 23.1025 16.0078 24.1284 14.7047 24.1284C13.4015 24.1284 12.345 23.1025 12.345 21.8369C12.345 20.5708 13.4015 19.5449 14.7047 19.5449C16.0078 19.5449 17.0643 20.5708 17.0643 21.8369Z" fill="#6BC1DD" fill-opacity="1.000000" fill-rule="evenodd"/>
	<path id="Vector" d="M32.677 21.8354C32.677 23.1011 31.6205 24.127 30.3174 24.127C29.0142 24.127 27.9577 23.1011 27.9577 21.8354C27.9577 20.5693 29.0142 19.5435 30.3174 19.5435C31.6205 19.5435 32.677 20.5693 32.677 21.8354Z" fill="#6BC1DD" fill-opacity="1.000000" fill-rule="evenodd"/>
	<path id="Vector" d="M32.9566 56.3164L32.9566 46.438C32.9566 45.8145 32.4295 45.3047 31.7853 45.3047L13.1917 45.3047C12.5475 45.3047 12.0204 45.8145 12.0204 46.438L12.0204 56.3164L32.9566 56.3164Z" fill="#135693" fill-opacity="1.000000" fill-rule="nonzero"/>
	<path id="Vector" d="M24.5966 56.3164L24.5966 53.1304C24.5966 52.9434 24.4385 52.7905 24.2453 52.7905L20.7314 52.7905C20.5383 52.7905 20.3801 52.9434 20.3801 53.1304L20.3801 56.3164L24.5966 56.3164Z" fill="#FFC502" fill-opacity="1.000000" fill-rule="nonzero"/>
	<path id="Vector" d="M17.569 48.8521L14.8751 48.8521C14.4041 48.8521 14.0224 48.4829 14.0224 48.0273C14.0224 47.5713 14.4041 47.2021 14.8751 47.2021L17.569 47.2021C18.04 47.2021 18.4217 47.5713 18.4217 48.0273C18.4217 48.4829 18.04 48.8521 17.569 48.8521Z" fill="#C5CCD3" fill-opacity="1.000000" fill-rule="nonzero"/>
	<path id="Vector" d="M16.3978 50.8638L14.8751 50.8638C14.4041 50.8638 14.0224 50.4946 14.0224 50.0391C14.0224 49.583 14.4041 49.2139 14.8751 49.2139L16.3978 49.2139C16.8689 49.2139 17.2505 49.583 17.2505 50.0391C17.2505 50.4946 16.8687 50.8638 16.3978 50.8638Z" fill="#C5CCD3" fill-opacity="1.000000" fill-rule="nonzero"/>
	<path id="Vector" d="M17.569 52.8799L14.8751 52.8799C14.4041 52.8799 14.0224 52.5107 14.0224 52.0552C14.0224 51.5991 14.4041 51.23 14.8751 51.23L17.569 51.23C18.04 51.23 18.4217 51.5991 18.4217 52.0552C18.4217 52.5107 18.04 52.8799 17.569 52.8799Z" fill="#C5CCD3" fill-opacity="1.000000" fill-rule="nonzero"/>
	<path id="Vector" d="M16.0464 54.8921L14.8751 54.8921C14.4041 54.8921 14.0224 54.5229 14.0224 54.0674C14.0224 53.6113 14.4041 53.2422 14.8751 53.2422L16.0464 53.2422C16.5174 53.2422 16.8991 53.6113 16.8991 54.0674C16.8991 54.5229 16.5173 54.8921 16.0464 54.8921Z" fill="#C5CCD3" fill-opacity="1.000000" fill-rule="nonzero"/>
	<path id="Vector" d="M29.7147 54.0654L27.6355 54.0654C27.1422 54.0654 26.7424 53.6782 26.7424 53.2012C26.7424 52.7236 27.1423 52.3369 27.6355 52.3369L29.7147 52.3369C30.2081 52.3369 30.608 52.7236 30.608 53.2012C30.608 53.6787 30.2081 54.0654 29.7147 54.0654Z" fill="#E6E9ED" fill-opacity="1.000000" fill-rule="nonzero"/>
	<path id="Vector" d="M30.5517 49.2554C30.5517 50.2578 29.7118 51.0703 28.6758 51.0703C27.6397 51.0703 26.7998 50.2578 26.7998 49.2554C26.7998 48.2529 27.6397 47.4404 28.6758 47.4404C29.7118 47.4404 30.5517 48.2529 30.5517 49.2554Z" fill="#5DC647" fill-opacity="1.000000" fill-rule="evenodd"/>
	<path id="Vector" d="M24.6487 50.2051C24.6487 50.397 24.4867 50.5537 24.2888 50.5537L20.6883 50.5537C20.4903 50.5537 20.3283 50.397 20.3283 50.2051L20.3283 48.3062C20.3283 48.1147 20.4903 47.958 20.6883 47.958L24.2888 47.958C24.4867 47.958 24.6487 48.1147 24.6487 48.3062L24.6487 50.2051Z" fill="#6BC1DD" fill-opacity="1.000000" fill-rule="nonzero"/>
</svg>
