<svg width="206.904663" height="59.000000" viewBox="0 0 206.905 59" fill="none" xmlns="http://www.w3.org/2000/svg" xmlns:xlink="http://www.w3.org/1999/xlink">
	<desc>
			Created with Pixso.
	</desc>
	<defs/>
	<path d="M29.5 0C25.6261 0 21.7899 0.763184 18.2108 2.24561C14.6317 3.72803 11.3798 5.90112 8.64029 8.64038C5.901 11.3796 3.72812 14.6316 2.24554 18.2107C0.763123 21.7898 0 25.626 0 29.5C0 33.374 0.763123 37.2102 2.24554 40.7893C3.72812 44.3684 5.901 47.6204 8.64029 50.3596C11.3798 53.0989 14.6317 55.272 18.2108 56.7544C21.7899 58.2368 25.6261 59 29.5 59L29.5 44.25C27.563 44.25 25.6449 43.8684 23.8554 43.1272C22.0658 42.386 20.4398 41.2996 19.0702 39.9299C17.7005 38.5603 16.6141 36.9341 15.8729 35.1445C15.1315 33.355 14.75 31.437 14.75 29.5C14.75 27.563 15.1315 25.645 15.8729 23.8555C16.6141 22.0659 17.7005 20.4397 19.0702 19.0701C20.4398 17.7004 22.0658 16.614 23.8554 15.8728C25.6449 15.1316 27.563 14.75 29.5 14.75L29.5 0Z" fill="#0F52FF" fill-opacity="1.000000" fill-rule="nonzero"/>
	<path d="M39.3334 29.5C39.3334 34.9309 34.9309 39.3335 29.5001 39.3335C24.0693 39.3335 19.6667 34.9309 19.6667 29.5C19.6667 24.0693 24.0693 19.6667 29.5001 19.6667C34.9309 19.6667 39.3334 24.0693 39.3334 29.5Z" fill="#0F52FF" fill-opacity="1.000000" fill-rule="evenodd"/>
	<path d="M0 29.5C0 33.374 0.763123 37.2102 2.24554 40.7893C3.72812 44.3684 5.901 47.6204 8.64029 50.3596C11.3798 53.0989 14.6317 55.272 18.2108 56.7544C21.7899 58.2368 25.6261 59 29.5 59C33.3739 59 37.2101 58.2368 40.7892 56.7544C44.3683 55.272 47.6202 53.0989 50.3597 50.3596C53.099 47.6204 55.2719 44.3684 56.7545 40.7893C58.2369 37.2102 59 33.374 59 29.5L44.25 29.5C44.25 31.437 43.8685 33.355 43.1271 35.1445C42.3859 36.9341 41.2995 38.5603 39.9298 39.9299C38.5602 41.2996 36.9342 42.386 35.1446 43.1272C33.3551 43.8684 31.437 44.25 29.5 44.25C27.563 44.25 25.6449 43.8684 23.8554 43.1272C22.0658 42.386 20.4398 41.2996 19.0702 39.9299C17.7005 38.5603 16.6141 36.9341 15.8729 35.1445C15.1315 33.355 14.75 31.437 14.75 29.5L0 29.5Z" fill="#5BD0F4" fill-opacity="1.000000" fill-rule="nonzero"/>
	<path d="M39.3335 29.5002C39.3335 26.8923 38.2974 24.3911 36.4534 22.5469C34.6093 20.7029 32.1082 19.6667 29.5002 19.6667C26.8922 19.6667 24.3911 20.7029 22.547 22.5469C20.7028 24.3911 19.6667 26.8923 19.6667 29.5002L29.5002 29.5002L39.3335 29.5002Z" fill="#5BD0F4" fill-opacity="1.000000" fill-rule="nonzero"/>
	<path d="M74.4066 18.4165L70.7427 18.4165L70.7427 38.7715L74.4066 38.7715L74.4066 18.4165Z" fill="#0F52FF" fill-opacity="1.000000" fill-rule="nonzero"/>
	<path d="M76.7992 31.5605C76.7992 36.2712 80.056 39.179 84.3596 39.179C88.6632 39.179 91.92 36.2712 91.92 31.5605C91.92 26.8499 88.6632 23.9419 84.3596 23.9419C80.056 23.9419 76.7992 26.8499 76.7992 31.5605ZM80.4631 31.5605C80.4631 28.769 82.0915 27.1406 84.3596 27.1406C86.6277 27.1406 88.2562 28.769 88.2562 31.5605C88.2562 34.3521 86.6277 35.9805 84.3596 35.9805C82.0915 35.9805 80.4631 34.3521 80.4631 31.5605Z" fill="#0F52FF" fill-opacity="1.000000" fill-rule="nonzero"/>
	<path d="M105.013 24.3489L105.013 26.2971L104.722 26.2971C103.85 25.0469 102.454 23.9419 99.9533 23.9419C96.522 23.9419 93.4397 26.8499 93.4397 31.3279C93.4397 35.8059 96.522 38.7139 99.9533 38.7139C102.454 38.7139 103.85 37.5796 104.664 36.4458L104.955 36.4458L104.955 37.8416C104.955 40.6331 103.326 41.9124 100.942 41.9124C98.5575 41.9124 97.3362 40.6331 96.8418 38.9753L93.556 40.4004C94.312 42.5811 96.522 44.9949 101 44.9949C105.595 44.9949 108.619 42.5811 108.619 37.9287L108.619 24.3489L105.013 24.3489ZM101.058 35.5732C98.7902 35.5732 97.1036 33.9448 97.1036 31.3279C97.1036 28.7107 98.7902 27.0823 101.058 27.0823C103.326 27.0823 105.013 28.7107 105.013 31.3279C105.013 33.9448 103.326 35.5732 101.058 35.5732Z" fill="#0F52FF" fill-opacity="1.000000" fill-rule="nonzero"/>
	<path d="M110.989 31.5605C110.989 36.2712 114.246 39.179 118.55 39.179C122.853 39.179 126.11 36.2712 126.11 31.5605C126.11 26.8499 122.853 23.9419 118.55 23.9419C114.246 23.9419 110.989 26.8499 110.989 31.5605ZM114.653 31.5605C114.653 28.769 116.282 27.1406 118.55 27.1406C120.818 27.1406 122.446 28.769 122.446 31.5605C122.446 34.3521 120.818 35.9805 118.55 35.9805C116.282 35.9805 114.653 34.3521 114.653 31.5605Z" fill="#0F52FF" fill-opacity="1.000000" fill-rule="nonzero"/>
	<path d="M128.986 20.1609C128.986 21.644 130.121 22.6616 131.575 22.6616C133.028 22.6616 134.163 21.644 134.163 20.1609C134.163 18.678 133.028 17.6602 131.575 17.6602C130.121 17.6602 128.986 18.678 128.986 20.1609ZM133.406 24.3481L129.743 24.3481L129.743 38.7712L133.406 38.7712L133.406 24.3481Z" fill="#5BD0F4" fill-opacity="1.000000" fill-rule="nonzero"/>
	<path d="M136.671 44.5876L140.336 44.5876L140.336 36.9109L140.626 36.9109C141.44 38.074 142.836 39.179 145.337 39.179C148.768 39.179 151.851 36.2712 151.851 31.5605C151.851 26.8499 148.768 23.9419 145.337 23.9419C142.836 23.9419 141.44 25.0469 140.568 26.2974L140.277 26.2974L140.277 24.3489L136.671 24.3489L136.671 44.5876ZM144.231 36.0386C141.964 36.0386 140.277 34.4102 140.277 31.5605C140.277 28.7107 141.964 27.0823 144.231 27.0823C146.5 27.0823 148.186 28.7107 148.186 31.5605C148.186 34.4102 146.5 36.0386 144.231 36.0386Z" fill="#5BD0F4" fill-opacity="1.000000" fill-rule="nonzero"/>
	<path d="M153.989 28.3911C153.989 31.2407 156.372 32.2876 159.396 32.8691L160.153 33.0144C161.955 33.3633 162.77 33.7996 162.77 34.7302C162.77 35.6606 161.955 36.3875 160.27 36.3875C158.582 36.3875 157.217 35.6897 156.837 33.5959L153.464 34.4683C153.96 37.4924 156.489 39.179 160.27 39.179C163.933 39.179 166.318 37.4636 166.318 34.4395C166.318 31.415 163.875 30.6011 160.619 29.9612L159.862 29.8157C158.35 29.5249 157.535 29.1179 157.535 28.1584C157.535 27.2861 158.292 26.7334 159.688 26.7334C161.084 26.7334 162.072 27.3149 162.421 28.8853L165.736 27.8677C165.038 25.5413 162.916 23.9419 159.688 23.9419C156.256 23.9419 153.989 25.5413 153.989 28.3911Z" fill="#5BD0F4" fill-opacity="1.000000" fill-rule="nonzero"/>
	<path d="M182.775 38.7712L182.775 24.3484L179.112 24.3484L179.112 31.7925C179.112 34.4678 177.804 36.0381 175.564 36.0381C173.586 36.0381 172.482 34.9622 172.482 32.7812L172.482 24.3484L168.817 24.3484L168.817 32.9556C168.817 36.5325 171.058 39.0039 174.431 39.0039C177.076 39.0039 178.298 37.8408 178.879 36.6196L179.169 36.6196L179.169 38.7712L182.775 38.7712Z" fill="#5BD0F4" fill-opacity="1.000000" fill-rule="nonzero"/>
	<path d="M186.025 24.3486L186.025 38.7715L189.69 38.7715L189.69 30.1643C189.69 28.187 190.621 27.082 192.306 27.082C193.761 27.082 194.633 27.8962 194.633 29.4663L194.633 38.7715L198.297 38.7715L198.297 30.1643C198.297 28.187 199.228 27.082 200.914 27.082C202.368 27.082 203.24 27.8962 203.24 29.4663L203.24 38.7715L206.905 38.7715L206.905 29.292C206.905 25.8025 204.752 24.116 202.077 24.116C199.722 24.116 198.646 25.1628 197.948 26.384L197.657 26.384C196.988 25.0176 195.796 24.116 193.702 24.116C191.608 24.116 190.474 25.0464 189.923 26.1514L189.631 26.1514L189.631 24.3486L186.025 24.3486Z" fill="#5BD0F4" fill-opacity="1.000000" fill-rule="nonzero"/>
</svg>
